<?xml version="1.0" standalone="no"?><!DOCTYPE svg PUBLIC "-//W3C//DTD SVG 1.1//EN" "http://www.w3.org/Graphics/SVG/1.1/DTD/svg11.dtd"><svg t="1726792488085" class="icon" viewBox="0 0 1024 1024" version="1.1" xmlns="http://www.w3.org/2000/svg" p-id="3480" xmlns:xlink="http://www.w3.org/1999/xlink" width="200" height="200"><path d="M297.277519 21.829457h628.688372v975.578295h-628.688372z" fill="#E8655A" p-id="3481"></path><path d="M157.568992 21.829457h139.708527v975.578295h-139.708527z" fill="#FFBA57" p-id="3482"></path><path d="M445.717829 180.589147h331.807752v209.562791h-331.807752z" fill="#E6E6E6" p-id="3483"></path><path d="M925.965891 1018.046512c11.113178 0 19.844961-8.731783 19.844962-19.844962v-976.372093c0-11.113178-8.731783-19.844961-19.844962-19.844961h-768.396899c-11.113178 0-19.844961 8.731783-19.844961 19.844961v64.297675h-43.658915c-11.113178 0-19.844961 8.731783-19.844961 19.844961s8.731783 19.844961 19.844961 19.844961h42.865117v158.75969h-42.865117c-11.113178 0-19.844961 8.731783-19.844961 19.844961s8.731783 19.844961 19.844961 19.844962h42.865117v158.75969h-42.865117c-11.113178 0-19.844961 8.731783-19.844961 19.844961s8.731783 19.844961 19.844961 19.844961h42.865117v158.75969h-42.865117c-11.113178 0-19.844961 8.731783-19.844961 19.844961s8.731783 19.844961 19.844961 19.844961h42.865117v158.75969h-42.865117c-11.113178 0-19.844961 8.731783-19.844961 19.844962s8.731783 19.844961 19.844961 19.844961h42.865117v74.617054c0 11.113178 8.731783 19.844961 19.844961 19.844961l769.190697 3.968993z m-747.758139-95.255814h42.865116c11.113178 0 19.844961-8.731783 19.844961-19.844962s-8.731783-19.844961-19.844961-19.844961h-42.865116v-158.75969h42.865116c11.113178 0 19.844961-8.731783 19.844961-19.844961s-8.731783-19.844961-19.844961-19.844961h-42.865116v-158.75969h42.865116c11.113178 0 19.844961-8.731783 19.844961-19.844961s-8.731783-19.844961-19.844961-19.844962h-42.865116v-158.75969h42.865116c11.113178 0 19.844961-8.731783 19.844961-19.844961s-8.731783-19.844961-19.844961-19.844961h-42.865116v-158.75969h42.865116c11.113178 0 19.844961-8.731783 19.844961-19.844961s-8.731783-19.844961-19.844961-19.844961h-42.865116v-46.834109h99.224806v935.094574h-99.224806v-54.772093z m727.11938 54.772093h-587.410853V42.468217h588.204651v935.094574h-0.793798z" fill="#603813" p-id="3484"></path><path d="M445.717829 410.790698h331.013954c11.113178 0 19.844961-8.731783 19.844961-19.844962v-210.356589c0-11.113178-8.731783-19.844961-19.844961-19.844961h-331.013954c-11.113178 0-19.844961 8.731783-19.844961 19.844961v209.562791c0 11.113178 8.731783 20.63876 19.844961 20.63876z m20.63876-209.562791h290.530233v169.07907h-290.530233v-169.07907z" fill="#603813" p-id="3485"></path><path d="M706.083721 234.567442h-15.082171c-11.113178 0-19.844961 8.731783-19.844961 19.844961s8.731783 19.844961 19.844961 19.844961h15.082171c11.113178 0 19.844961-8.731783 19.844961-19.844961s-8.731783-19.844961-19.844961-19.844961zM623.528682 234.567442h-101.606201c-11.113178 0-19.844961 8.731783-19.844962 19.844961s8.731783 19.844961 19.844962 19.844961h101.606201c11.113178 0 19.844961-8.731783 19.844961-19.844961s-8.731783-19.844961-19.844961-19.844961z" fill="#603813" p-id="3486"></path></svg>